<svg width="30" height="31" viewBox="0 0 30 31" fill="none" xmlns="http://www.w3.org/2000/svg">
<path d="M26.25 15.5C26.2503 18.4577 25.0858 21.2965 23.0086 23.402C20.9314 25.5075 18.1086 26.7103 15.1512 26.75H15C12.1268 26.7572 9.36127 25.6577 7.27734 23.6797C7.18785 23.5951 7.11591 23.4937 7.06563 23.3812C7.01534 23.2688 6.9877 23.1475 6.98427 23.0244C6.98084 22.9013 7.0017 22.7787 7.04565 22.6636C7.0896 22.5485 7.15579 22.4432 7.24043 22.3538C7.32507 22.2643 7.42651 22.1923 7.53895 22.142C7.6514 22.0918 7.77264 22.0641 7.89577 22.0607C8.0189 22.0573 8.1415 22.0781 8.25657 22.1221C8.37163 22.166 8.47692 22.2322 8.56641 22.3168C9.90679 23.5809 11.5899 24.422 13.4056 24.7351C15.2212 25.0482 17.0889 24.8193 18.7752 24.0771C20.4615 23.3349 21.8918 22.1123 22.8873 20.5619C23.8828 19.0116 24.3994 17.2023 24.3726 15.3601C24.3458 13.5178 23.7767 11.7243 22.7366 10.2036C21.6964 8.68288 20.2312 7.50237 18.524 6.80954C16.8167 6.11671 14.9432 5.94227 13.1375 6.30803C11.3317 6.67378 9.67375 7.56351 8.3707 8.86606C8.36113 8.87641 8.35096 8.8862 8.34023 8.89536L5.22539 11.75H8.4375C8.68614 11.75 8.9246 11.8488 9.10041 12.0246C9.27623 12.2004 9.375 12.4389 9.375 12.6875C9.375 12.9362 9.27623 13.1746 9.10041 13.3505C8.9246 13.5263 8.68614 13.625 8.4375 13.625H2.8125C2.56386 13.625 2.3254 13.5263 2.14959 13.3505C1.97377 13.1746 1.875 12.9362 1.875 12.6875V7.06255C1.875 6.8139 1.97377 6.57545 2.14959 6.39963C2.3254 6.22382 2.56386 6.12505 2.8125 6.12505C3.06114 6.12505 3.2996 6.22382 3.47541 6.39963C3.65123 6.57545 3.75 6.8139 3.75 7.06255V10.5547L7.06055 7.5313C8.63553 5.96244 10.64 4.89536 12.8209 4.46477C15.0019 4.03418 17.2615 4.25938 19.3145 5.11194C21.3676 5.96451 23.122 7.40621 24.3564 9.25506C25.5907 11.1039 26.2497 13.277 26.25 15.5Z" fill="#0B0000"/>
</svg>
