<svg width="30" height="31" viewBox="0 0 30 31" fill="none" xmlns="http://www.w3.org/2000/svg">
<path d="M15 27.375C20.5979 27.375 23.3969 27.375 25.136 25.636C26.875 23.8969 26.875 21.0979 26.875 15.5C26.875 9.90206 26.875 7.1031 25.136 5.36405C23.3969 3.625 20.5979 3.625 15 3.625C9.40207 3.625 6.60311 3.625 4.86405 5.36405C3.125 7.10311 3.125 9.90207 3.125 15.5C3.125 21.0979 3.125 23.8969 4.86405 25.636C6.6031 27.375 9.40206 27.375 15 27.375Z" stroke="#0B0000" stroke-width="1.5" stroke-linecap="round" stroke-linejoin="round"/>
<path d="M18.75 11.75L11.25 19.2495M18.75 19.25L11.25 11.7505" stroke="#0B0000" stroke-width="1.5" stroke-linecap="round" stroke-linejoin="round"/>
</svg>
