<svg width="11" height="10" viewBox="0 0 11 10" fill="none" xmlns="http://www.w3.org/2000/svg">
<path d="M10.3483 2.58365L8.99414 0.375312C8.97331 0.271145 8.88997 0.187812 8.80664 0.125312C8.70247 0.0628119 8.57747 0.0628119 8.47331 0.104479H2.57747C2.43164 0.104479 2.30664 0.166979 2.22331 0.291979L0.827474 2.58365C0.744141 2.66698 0.681641 2.77115 0.681641 2.89615C0.681641 3.02115 0.744141 3.12531 0.806641 3.20865L5.20247 9.66698C5.22331 9.70865 5.24414 9.72948 5.26497 9.75031C5.32747 9.81281 5.41081 9.87531 5.49414 9.87531H5.68164C5.82747 9.83365 5.93164 9.70865 5.97331 9.56281L10.39 3.18781C10.4525 3.10448 10.4941 3.02115 10.4941 2.91698C10.4941 2.77115 10.4525 2.66698 10.3483 2.58365ZM7.88997 0.937812L7.03581 2.50031H4.20247L3.32747 0.937812H7.88997ZM2.59831 1.29198L3.28581 2.50031H1.84831L2.59831 1.29198ZM1.86914 3.33365H3.66081L4.70247 7.50031L1.86914 3.33365ZM5.59831 7.79198L4.49414 3.33365H6.74414L5.59831 7.79198ZM6.55664 7.35448L7.59831 3.33365H9.28581L6.55664 7.35448ZM7.99414 2.50031L8.61914 1.35448L9.32747 2.50031H7.99414Z" fill="url(#paint0_linear_561_2435)"/>
<defs>
<linearGradient id="paint0_linear_561_2435" x1="0.681641" y1="4.97531" x2="10.4941" y2="4.97531" gradientUnits="userSpaceOnUse">
<stop stop-color="#FCA771"/>
<stop offset="1" stop-color="#F31924"/>
</linearGradient>
</defs>
</svg>
